PathFileType	4	(X/Y/Z)	RBDS09\RBDS09runT35.trc
DataRate	CameraRate	NumFrames	NumMarkers	Units	OrigDataRate	OrigDataStartFrame	OrigNumFrames
150.000000	150.000000	5	33	mm	150.000000	3375	4500
Frame#	Time	L.ASIS			L.Heel.Bottom			L.Heel.Lateral			L.Heel.Top			L.Iliac.Crest			L.MT1			L.MT5			L.PSIS			L.Shank.Bottom.Lateral			L.Shank.Bottom.Medial			L.Shank.Top.Lateral			L.Shank.Top.Medial			L.Thigh.Bottom.Lateral			L.Thigh.Bottom.Medial			L.Thigh.Top.Lateral			L.Thigh.Top.Medial			R.ASIS			R.ASY			R.Heel.Bottom			R.Heel.Lateral			R.Heel.Top			R.Iliac.Crest			R.MT1			R.MT5			R.PSIS			R.Shank.Bottom.Lateral			R.Shank.Bottom.Medial			R.Shank.Top.Lateral			R.Shank.Top.Medial			R.Thigh.Bottom.Lateral			R.Thigh.Bottom.Medial			R.Thigh.Top.Lateral			R.Thigh.Top.Medial			
		X1	Y1	Z1	X2	Y2	Z2	X3	Y3	Z3	X4	Y4	Z4	X5	Y5	Z5	X6	Y6	Z6	X7	Y7	Z7	X8	Y8	Z8	X9	Y9	Z9	X10	Y10	Z10	X11	Y11	Z11	X12	Y12	Z12	X13	Y13	Z13	X14	Y14	Z14	X15	Y15	Z15	X16	Y16	Z16	X17	Y17	Z17	X18	Y18	Z18	X19	Y19	Z19	X20	Y20	Z20	X21	Y21	Z21	X22	Y22	Z22	X23	Y23	Z23	X24	Y24	Z24	X25	Y25	Z25	X26	Y26	Z26	X27	Y27	Z27	X28	Y28	Z28	X29	Y29	Z29	X30	Y30	Z30	X31	Y31	Z31	X32	Y32	Z32	X33	Y33	Z33	

3376	22.5	2314.672054070043	943.4542034302392	912.8935349571935	1721.964194859794	491.2897767791981	996.2393006563111	1734.485941412613	462.889968420834	948.5191606554321	1769.923885780044	480.1334058086763	990.6374982074033	2262.731818022346	1016.615205748048	878.9598255310605	1722.339318109123	274.2974513371469	1002.243224025415	1709.048869061768	325.0182470759189	904.4121087242896	2147.395787138351	977.4202022162715	981.6235495163377	1856.624595386192	445.3809540970577	920.7871746280775	1848.531325060223	478.7739715685751	961.9806069236943	1931.910022880985	471.5746460843499	913.0817250478617	1925.26404106621	504.4791794731818	954.7363946944783	2170.761653634756	577.0401183422405	898.7627637701876	2129.503479764906	585.3119017326328	958.7817034378777	2168.143918436881	686.873932928332	883.1477356535621	2131.192095846676	694.7849033151102	942.0606331516941	2287.807104528241	957.0147266404107	1145.343697449818	581885561.2092407	-815592903.8684978	-2121164232.087141	2279.143351278815	28.24665346954375	1025.054280254387	2301.704134562966	44.27932263446236	1077.93516967149	2286.880452630968	75.70755004302413	1031.737809825498	2211.937356161427	1019.940852673359	1181.791513880561	2488.590751259356	60.58847559454203	1039.742648035329	2436.199262914829	33.05308582739731	1134.533472925716	2135.247710795613	977.8983543602466	1056.521238891896	2302.362888351212	167.5979999437929	1100.1418442536	2290.188219095623	177.5085046480716	1051.122628684363	2287.683642426221	249.1551503625568	1117.253427520144	2275.137042741151	255.0774463000408	1066.017584414178	2310.987494726736	565.2789610134154	1175.911186787343	2258.125968519773	543.472135356052	1130.752555464896	2260.367516271325	662.7086135082948	1186.026284033781	2210.90390240732	642.188920493656	1143.814990303416	
3377	22.50666666666667	2313.19897769818	938.1556310425494	913.622349555088	1736.431996647684	498.0529738439088	996.2403567772611	1748.581592672829	469.8034317548878	948.1701523503484	1784.143639757543	485.8550118228445	990.8573698010839	2262.012315302496	1009.432307859914	878.6790541351645	1732.202369221066	280.8059627832907	1000.018646286918	1720.54492023851	332.8095696233142	902.5087269006345	2145.369039356276	971.2052257450908	981.5818603884744	1870.436879245095	449.1012936692862	920.1130426923165	1863.771318362454	482.0786364918839	961.8917536991306	1946.558039090001	472.6721648915226	912.458580242573	1941.374097246827	504.9115284010578	954.8600709707982	2179.524518746668	569.5555362157588	896.9436554578534	2138.176565542065	575.535289246619	957.2024886565511	2172.655658622887	679.4141433868638	882.5365224944136	2135.556353630652	685.1476779478749	941.5365841265268	2285.754915798585	951.74140570512	1146.358129236012	582408817.9950839	-816328180.9254389	-2123075926.74624	2257.98429386039	27.37066742749586	1022.579395623853	2280.901352568817	44.56418235938219	1074.886546632605	2267.517399150202	74.92837692903696	1027.45692330971	2210.854395947646	1012.995672131289	1182.460027159183	2469.131836239033	54.01300233641911	1036.762877638887	2414.881846239716	31.70586249380165	1132.532947823739	2132.979247451525	972.0728510610846	1056.475350654011	2287.921282916839	165.3927321331315	1097.104897841909	2275.061872266911	176.2292929386948	1048.453060476585	2276.850037862914	247.2382539076432	1115.169614821725	2263.550419294721	254.1538446480882	1064.239294815389	2308.312947035787	560.6178015252189	1175.165629744149	2255.737237840432	539.0925465271749	1129.514745505708	2257.588535598844	657.9450887650604	1185.579864620127	2208.310020535544	637.6695355053635	1142.999714924235	
3378	22.51333333333334	2311.438848671601	933.0162160834935	914.4723506421734	1751.292606531066	503.2690729012469	995.4906148672648	1763.304907003524	475.0444906169549	947.2398247570567	1798.799169883394	490.2666361431616	990.4764891240618	2261.035109401186	1002.13401401418	878.4012031725634	1743.703210115761	285.9361213868674	998.0926080064983	1733.529544205616	338.6571600337214	900.6437478805622	2143.019443100054	965.3723195307088	981.5633405959884	1885.02939871285	452.0370874430776	919.1471309700094	1879.652245492466	484.5194574785276	961.5307941212378	1961.860837324386	473.2694971664027	911.5893722489353	1957.970951293778	504.7718406278843	954.7283208780838	2188.478827500826	562.8640232312612	894.692450342784	2146.842055444189	566.4180330004274	954.9421461945511	2177.372104452201	672.5702190537509	881.6666943971964	2139.956121203299	676.0171523694701	940.5503389743857	2283.462905258566	946.6948957572807	1147.45641469359	582932388.3641766	-817063899.7622429	-2124988769.666084	2235.74368096903	26.93857202350156	1020.67431250933	2259.039507354763	45.31075657627688	1072.401766565375	2246.861247577398	74.57817725404006	1023.839266692116	2209.654590474251	1005.81604099546	1183.264521733901	2448.357120009476	48.80267451434151	1034.167848288912	2392.579954144749	31.23939022667796	1130.821782727178	2130.440761905733	966.5967373277063	1056.437945155178	2272.489567919148	164.0849434756407	1094.569551269138	2258.910476759278	175.8424315510795	1046.319687052266	2265.251318327063	246.1573798582104	1113.510780921461	2251.203202698837	254.0610551420347	1062.886663583865	2305.527263443246	556.2851426538061	1174.54501652723	2253.321312416977	535.0733720316936	1128.26702604447	2254.655013486939	653.5023408654938	1185.253573632323	2205.629596647513	633.4848649119917	1142.210596729124	
3379	22.52	2309.415152594661	928.2268152227693	915.4029701358577	1766.332349567988	506.9095211878416	993.9426829494821	1778.445303928297	478.5691550889478	945.6950508288352	1813.700782199145	493.3677680352869	989.4271733243062	2259.613658936785	994.9711569436616	878.129781681198	1756.727986208777	289.5973703365186	996.5003666573079	1747.829874745448	342.4500890057209	898.8397554984969	2140.405511684035	960.0909501756863	981.553410354685	1900.238824333416	454.1700323201518	917.8723769753639	1895.969020560871	486.1270970273431	960.8486747384152	1977.662953416744	473.4317582330256	910.4684428296079	1974.860649687748	504.1844529761889	954.2945937410396	2197.64703272216	557.1323843812038	892.0789651861982	2155.526329368152	558.1323306640537	952.0534279919642	2182.331031705398	666.5015873415899	880.5620075346167	2144.432536198604	667.5617486224783	939.1178999235431	2280.980334174682	942.0524507961014	1148.618199442245	583456272.4104501	-817800060.5115875	-2126902761.19142	2212.785789923266	26.89016874883783	1019.345746387454	2236.447509804006	46.34903264542093	1070.541030535175	2225.211361722783	74.58747287309298	1021.014952514076	2208.239234501139	998.6344052353269	1184.165515840862	2426.568944116728	45.01805120936906	1032.114163664296	2369.616464808018	31.44226149993678	1129.484483016816	2127.715082811664	961.6285892591047	1056.395079905616	2256.164636764246	163.5977085825639	1092.643755245119	2241.903109735085	176.2438406315145	1044.806587998505	2252.849620440495	245.8114027860563	1112.331842527967	2238.133033567543	254.6659586449918	1061.995297226738	2302.429238117611	552.3072496608205	1174.09981321956	2250.627517010887	531.4668892329137	1127.110902584104	2251.477668875065	649.4692866826906	1185.070735869727	2202.730717294372	629.7477716736317	1141.512434904463	
3380	22.52666666666667	2307.16795122039	923.9775028176272	916.356770896303	1781.353789336585	508.9423014517579	991.6167277021028	1793.803582999605	480.3542584309708	943.5536451788054	1828.669681987799	495.157789160181	987.6909090830712	2257.570120661349	988.2261235566029	877.878858622621	1771.166759213519	291.7134629080658	995.2429277829345	1763.280219713022	344.1343412022885	897.1122361096582	2137.610687741275	955.5096906059171	981.5545805912169	1915.892354553967	455.477247304705	916.2919751192076	1912.506383416106	486.9295988196863	959.813025037225	1993.790530055971	473.219718996576	909.1002764882144	1991.835385861863	503.2708898251474	953.5241418681734	2207.048767171437	552.510760413344	889.196975583662	2164.277363863765	550.8435656046659	948.6346394326891	2187.562741266707	661.3527528387295	879.2567810791189	2149.038429986455	659.9409757886107	937.282117430508	2278.386853984742	937.9696241450732	1149.814569510682	583980470.2278355	-818536663.3061506	-2128817901.666996	2189.408144769093	27.16177173527418	1018.568211205569	2213.396405513808	47.52396311776804	1069.322501585557	2202.836063073957	74.88841519619271	1019.049867447304	2206.526379270262	991.7264746180734	1185.114965764092	2404.041156947988	42.58357509257864	1030.698817801003	2346.253292841249	32.07233652880042	1128.577342233044	2124.908558346072	957.307932779862	1056.350546654248	2239.032126947354	163.8033095517452	1091.39292925854	2224.182104830281	177.2857727842715	1043.957580350179	2239.605552946467	246.0556042510521	1111.666016111218	2224.352265370787	255.8000777329427	1061.586727983235	2298.807392578196	548.6914431155768	1173.879098115597	2247.381041604541	528.3015723909684	1126.168015071467	2247.963375456766	645.9145032773357	1185.053785747112	2199.465347672544	626.5492716701681	1140.983635237821	
